<svg xmlns="http://www.w3.org/2000/svg" viewBox="-2.3 -2.3 4.6 4.6" width="640" height="640"><title>Prompt suggestion</title><metadata>Adapted from Isocons; CC BY 4.0. Geometry, palette and animation modified. Candidate for review.</metadata><g id="arrow"><path d="M -1.25727 -0.90088 C -1.34388 -0.85088 -1.43048 -0.80088 -1.51708 -0.75088 C -1.51708 -0.43421 -1.51708 -0.11754 -1.51708 0.19912 C -1.43048 0.24912 -1.34388 0.29912 -1.25727 0.34912 C -0.91664 0.15246 -0.57600 -0.04421 -0.23536 -0.24088 C -0.33063 -0.07588 -0.42589 0.08912 -0.52115 0.25413 C -0.45476 0.28912 -0.38836 0.32412 -0.32197 0.35912 C -0.14299 0.03579 0.03599 -0.28754 0.21497 -0.61088 C 0.03599 -0.72754 -0.14299 -0.84421 -0.32197 -0.96088 C -0.38836 -0.84254 -0.45476 -0.72421 -0.52115 -0.60588 C -0.42589 -0.56754 -0.33063 -0.52921 -0.23536 -0.49088 C -0.53270 -0.31921 -0.83004 -0.14754 -1.12737 0.02412 C -1.17067 -0.00088 -1.21397 -0.02588 -1.25727 -0.05088 C -1.25727 -0.33421 -1.25727 -0.61754 -1.25727 -0.90088" fill="#C7AE86" fill-opacity="1.0" stroke="#3D3929" stroke-width="0.024" stroke-opacity="1.0" stroke-linejoin="round" stroke-linecap="round"/><path d="M -1.10139 -0.81088 C -1.18799 -0.76088 -1.27459 -0.71088 -1.36120 -0.66088 C -1.41316 -0.69088 -1.46512 -0.72088 -1.51708 -0.75088 C -1.43048 -0.80088 -1.34388 -0.85088 -1.25727 -0.90088 C -1.20531 -0.87088 -1.15335 -0.84088 -1.10139 -0.81088" fill="#C7AE86" fill-opacity="1.0" stroke="#3D3929" stroke-width="0.0" stroke-opacity="1.0" stroke-linejoin="round" stroke-linecap="round"/><path d="M -1.36120 -0.66088 C -1.36120 -0.34421 -1.36120 -0.02754 -1.36120 0.28912 C -1.41316 0.25912 -1.46512 0.22912 -1.51708 0.19912 C -1.51708 -0.11754 -1.51708 -0.43421 -1.51708 -0.75088 C -1.46512 -0.72088 -1.41316 -0.69088 -1.36120 -0.66088" fill="#C7AE86" fill-opacity="1.0" stroke="#3D3929" stroke-width="0.0" stroke-opacity="1.0" stroke-linejoin="round" stroke-linecap="round"/><path d="M -1.36120 0.28912 C -1.27459 0.33913 -1.18799 0.38912 -1.10139 0.43912 C -1.15335 0.40912 -1.20531 0.37912 -1.25727 0.34912 C -1.34388 0.29912 -1.43048 0.24912 -1.51708 0.19912 C -1.46512 0.22912 -1.41316 0.25912 -1.36120 0.28912" fill="#C7AE86" fill-opacity="1.0" stroke="#3D3929" stroke-width="0.0" stroke-opacity="1.0" stroke-linejoin="round" stroke-linecap="round"/><path d="M -1.10139 0.43912 C -0.76075 0.24246 -0.42012 0.04579 -0.07948 -0.15088 C -0.13144 -0.18088 -0.18340 -0.21088 -0.23536 -0.24088 C -0.57600 -0.04421 -0.91664 0.15246 -1.25727 0.34912 C -1.20531 0.37912 -1.15335 0.40912 -1.10139 0.43912" fill="#C7AE86" fill-opacity="1.0" stroke="#3D3929" stroke-width="0.0" stroke-opacity="1.0" stroke-linejoin="round" stroke-linecap="round"/><path d="M -0.07948 -0.15088 C -0.17474 0.01412 -0.27001 0.17912 -0.36527 0.34413 C -0.41723 0.31413 -0.46919 0.28413 -0.52115 0.25413 C -0.42589 0.08913 -0.33063 -0.07588 -0.23536 -0.24088 C -0.18340 -0.21088 -0.13144 -0.18088 -0.07948 -0.15088" fill="#C7AE86" fill-opacity="1.0" stroke="#3D3929" stroke-width="0.0" stroke-opacity="1.0" stroke-linejoin="round" stroke-linecap="round"/><path d="M -0.36527 0.34413 C -0.29887 0.37913 -0.23248 0.41412 -0.16608 0.44912 C -0.21804 0.41912 -0.27001 0.38912 -0.32197 0.35912 C -0.38836 0.32412 -0.45476 0.28912 -0.52115 0.25413 C -0.46919 0.28413 -0.41723 0.31412 -0.36527 0.34413" fill="#C7AE86" fill-opacity="1.0" stroke="#3D3929" stroke-width="0.0" stroke-opacity="1.0" stroke-linejoin="round" stroke-linecap="round"/><path d="M -0.16608 0.44912 C 0.01290 0.12579 0.19187 -0.19754 0.37085 -0.52088 C 0.31889 -0.55088 0.26693 -0.58088 0.21497 -0.61088 C 0.03599 -0.28754 -0.14299 0.03579 -0.32197 0.35912 C -0.27001 0.38912 -0.21804 0.41912 -0.16608 0.44912" fill="#C7AE86" fill-opacity="1.0" stroke="#3D3929" stroke-width="0.0" stroke-opacity="1.0" stroke-linejoin="round" stroke-linecap="round"/><path d="M 0.37085 -0.52088 C 0.19187 -0.63754 0.01290 -0.75421 -0.16608 -0.87088 C -0.21804 -0.90088 -0.27001 -0.93088 -0.32197 -0.96088 C -0.14299 -0.84421 0.03599 -0.72754 0.21497 -0.61088 C 0.26693 -0.58088 0.31889 -0.55088 0.37085 -0.52088" fill="#C7AE86" fill-opacity="1.0" stroke="#3D3929" stroke-width="0.0" stroke-opacity="1.0" stroke-linejoin="round" stroke-linecap="round"/><path d="M -0.16608 -0.87088 C -0.23248 -0.75254 -0.29887 -0.63421 -0.36527 -0.51588 C -0.41723 -0.54588 -0.46919 -0.57588 -0.52115 -0.60588 C -0.45476 -0.72421 -0.38836 -0.84254 -0.32197 -0.96088 C -0.27001 -0.93088 -0.21804 -0.90087 -0.16608 -0.87088" fill="#C7AE86" fill-opacity="1.0" stroke="#3D3929" stroke-width="0.0" stroke-opacity="1.0" stroke-linejoin="round" stroke-linecap="round"/><path d="M -0.36527 -0.51588 C -0.27001 -0.47754 -0.17474 -0.43921 -0.07948 -0.40088 C -0.13144 -0.43088 -0.18340 -0.46088 -0.23536 -0.49088 C -0.33063 -0.52921 -0.42589 -0.56754 -0.52115 -0.60588 C -0.46919 -0.57588 -0.41723 -0.54588 -0.36527 -0.51588" fill="#C7AE86" fill-opacity="1.0" stroke="#3D3929" stroke-width="0.0" stroke-opacity="1.0" stroke-linejoin="round" stroke-linecap="round"/><path d="M -0.07948 -0.40088 C -0.37682 -0.22921 -0.67415 -0.05754 -0.97149 0.11412 C -1.02345 0.08412 -1.07541 0.05412 -1.12737 0.02412 C -0.83004 -0.14754 -0.53270 -0.31921 -0.23536 -0.49088 C -0.18340 -0.46088 -0.13144 -0.43088 -0.07948 -0.40088" fill="#C7AE86" fill-opacity="1.0" stroke="#3D3929" stroke-width="0.0" stroke-opacity="1.0" stroke-linejoin="round" stroke-linecap="round"/><path d="M -0.97149 0.11412 C -1.01479 0.08912 -1.05809 0.06412 -1.10139 0.03912 C -1.15335 0.00912 -1.20531 -0.02088 -1.25727 -0.05088 C -1.21397 -0.02588 -1.17067 -0.00088 -1.12737 0.02412 C -1.07541 0.05412 -1.02345 0.08412 -0.97149 0.11412" fill="#C7AE86" fill-opacity="1.0" stroke="#3D3929" stroke-width="0.0" stroke-opacity="1.0" stroke-linejoin="round" stroke-linecap="round"/><path d="M -1.10139 0.03912 C -1.10139 -0.24421 -1.10139 -0.52754 -1.10139 -0.81088 C -1.15335 -0.84088 -1.20531 -0.87088 -1.25727 -0.90088 C -1.25727 -0.61754 -1.25727 -0.33421 -1.25727 -0.05088 C -1.20531 -0.02088 -1.15335 0.00912 -1.10139 0.03912" fill="#C7AE86" fill-opacity="1.0" stroke="#3D3929" stroke-width="0.0" stroke-opacity="1.0" stroke-linejoin="round" stroke-linecap="round"/><path d="M -1.10139 -0.81088 C -1.18799 -0.76088 -1.27459 -0.71088 -1.36120 -0.66088 C -1.36120 -0.34421 -1.36120 -0.02754 -1.36120 0.28912 C -1.27459 0.33913 -1.18799 0.38912 -1.10139 0.43912 C -0.76075 0.24246 -0.42012 0.04579 -0.07948 -0.15088 C -0.17474 0.01412 -0.27001 0.17912 -0.36527 0.34413 C -0.29887 0.37913 -0.23248 0.41412 -0.16608 0.44912 C 0.01290 0.12579 0.19187 -0.19754 0.37085 -0.52088 C 0.19187 -0.63754 0.01290 -0.75421 -0.16608 -0.87088 C -0.23248 -0.75254 -0.29887 -0.63421 -0.36527 -0.51588 C -0.27001 -0.47754 -0.17474 -0.43921 -0.07948 -0.40088 C -0.37682 -0.22921 -0.67415 -0.05754 -0.97149 0.11412 C -1.01479 0.08912 -1.05809 0.06412 -1.10139 0.03912 C -1.10139 -0.24421 -1.10139 -0.52754 -1.10139 -0.81088" fill="#F3E9D8" fill-opacity="1.0" stroke="#3D3929" stroke-width="0.032" stroke-opacity="1.0" stroke-linejoin="round" stroke-linecap="round"/></g><g id="suggestion"><path d="M 0.97668 0.96088 C 0.81531 0.86771 0.65394 0.77454 0.49257 0.68137 C 0.49257 0.66404 0.49257 0.64671 0.49257 0.62937 C 0.65394 0.72254 0.81531 0.81571 0.97668 0.90887 C 0.97668 0.92621 0.97668 0.94354 0.97668 0.96088" fill="#DCC9AA" fill-opacity="1.0" stroke="#3D3929" stroke-width="0.024" stroke-opacity="1.0" stroke-linejoin="round" stroke-linecap="round"/><path d="M 0.97668 0.96088 C 1.15682 0.85687 1.33695 0.75287 1.51708 0.64887 C 1.51708 0.63154 1.51708 0.61421 1.51708 0.59687 C 1.33695 0.70087 1.15682 0.80487 0.97668 0.90887 C 0.97668 0.92621 0.97668 0.94354 0.97668 0.96088" fill="#C7AE86" fill-opacity="1.0" stroke="#3D3929" stroke-width="0.024" stroke-opacity="1.0" stroke-linejoin="round" stroke-linecap="round"/><path d="M 0.97668 0.90887 C 1.15682 0.80487 1.33695 0.70087 1.51708 0.59687 C 1.35571 0.50371 1.19434 0.41054 1.03297 0.31737 C 0.85284 0.42137 0.67271 0.52537 0.49257 0.62937 C 0.65394 0.72254 0.81531 0.81571 0.97668 0.90887" fill="#F3E9D8" fill-opacity="1.0" stroke="#3D3929" stroke-width="0.024" stroke-opacity="1.0" stroke-linejoin="round" stroke-linecap="round"/><path d="M 0.90913 0.73012 C 1.01046 0.67162 1.11178 0.61312 1.21311 0.55462" fill="#8B8F96" fill-opacity="0.0" stroke="#8B8F96" stroke-width="0.04" stroke-opacity="1.0" stroke-linejoin="round" stroke-linecap="round"/></g></svg>
