<?xml version="1.0" encoding="UTF-8"?>
<svg xmlns="http://www.w3.org/2000/svg" xmlns:xlink="http://www.w3.org/1999/xlink" width="854" height="480" viewBox="0 0 854 480">
<defs>
<g>
<g id="glyph-0-0">
<path d="M 0.746094 0.078125 C 0.613281 0.078125 0.503906 0.0664062 0.421875 0.0390625 C 0.335938 0.0117188 0.296875 -0.03125 0.296875 -0.09375 C 0.296875 -0.21875 0.464844 -0.3125 0.808594 -0.375 C 1.203125 -0.445312 1.503906 -0.566406 1.710938 -0.730469 C 1.917969 -0.898438 2.023438 -1.167969 2.023438 -1.539062 L 2.023438 -8.539062 C 2.023438 -8.914062 1.945312 -9.1875 1.789062 -9.363281 C 1.632812 -9.539062 1.363281 -9.644531 0.980469 -9.675781 C 0.804688 -9.695312 0.675781 -9.734375 0.589844 -9.792969 C 0.507812 -9.847656 0.464844 -9.914062 0.464844 -9.988281 C 0.464844 -10.050781 0.507812 -10.09375 0.589844 -10.117188 C 0.671875 -10.144531 0.78125 -10.15625 0.917969 -10.15625 C 1.199219 -10.15625 1.414062 -10.15625 1.570312 -10.15625 C 1.726562 -10.15625 1.875 -10.15625 2.015625 -10.148438 C 2.15625 -10.144531 2.328125 -10.140625 2.535156 -10.140625 C 2.734375 -10.140625 2.902344 -10.148438 3.050781 -10.164062 C 3.195312 -10.179688 3.359375 -10.195312 3.539062 -10.203125 C 3.71875 -10.214844 3.960938 -10.21875 4.261719 -10.21875 C 5.476562 -10.21875 6.378906 -10.046875 6.976562 -9.699219 C 7.574219 -9.351562 7.871094 -8.753906 7.871094 -7.902344 C 7.871094 -7.550781 7.8125 -7.242188 7.691406 -6.976562 C 7.574219 -6.710938 7.457031 -6.523438 7.34375 -6.410156 C 7.175781 -6.242188 7.027344 -6.117188 6.890625 -6.027344 C 6.757812 -5.941406 6.558594 -5.84375 6.300781 -5.738281 C 6.257812 -5.730469 6.238281 -5.707031 6.238281 -5.671875 C 6.238281 -5.632812 6.257812 -5.605469 6.300781 -5.585938 C 6.539062 -5.511719 6.785156 -5.417969 7.039062 -5.304688 C 7.292969 -5.191406 7.53125 -5.042969 7.753906 -4.859375 C 7.976562 -4.679688 8.160156 -4.441406 8.300781 -4.144531 C 8.441406 -3.851562 8.507812 -3.472656 8.507812 -3.019531 C 8.507812 -2.449219 8.417969 -1.996094 8.238281 -1.664062 C 8.054688 -1.332031 7.839844 -1.078125 7.589844 -0.902344 C 7.34375 -0.726562 7.109375 -0.582031 6.890625 -0.464844 C 6.570312 -0.300781 6.195312 -0.171875 5.769531 -0.078125 C 5.34375 0.015625 4.835938 0.0625 4.246094 0.0625 C 4.113281 0.0625 3.910156 0.0507812 3.640625 0.03125 C 3.371094 0.0117188 3.078125 0 2.769531 0 C 2.5 0 2.269531 0.00390625 2.085938 0.015625 C 1.898438 0.0273438 1.703125 0.0390625 1.5 0.0546875 C 1.296875 0.0703125 1.046875 0.078125 0.746094 0.078125 Z M 4.464844 -0.574219 C 4.921875 -0.574219 5.347656 -0.679688 5.738281 -0.886719 C 6.132812 -1.09375 6.449219 -1.375 6.6875 -1.734375 C 6.925781 -2.09375 7.046875 -2.492188 7.046875 -2.941406 C 7.046875 -3.34375 6.980469 -3.679688 6.84375 -3.945312 C 6.710938 -4.207031 6.554688 -4.421875 6.378906 -4.589844 C 6.203125 -4.753906 6.039062 -4.875 5.894531 -4.945312 C 5.761719 -5.027344 5.546875 -5.113281 5.257812 -5.203125 C 4.96875 -5.292969 4.589844 -5.335938 4.121094 -5.335938 C 3.789062 -5.335938 3.558594 -5.269531 3.429688 -5.132812 C 3.300781 -5 3.234375 -4.878906 3.234375 -4.777344 L 3.234375 -1.679688 C 3.234375 -1.246094 3.34375 -0.953125 3.554688 -0.800781 C 3.765625 -0.652344 4.070312 -0.574219 4.464844 -0.574219 Z M 3.949219 -5.769531 C 4.230469 -5.769531 4.535156 -5.800781 4.859375 -5.863281 C 5.1875 -5.925781 5.511719 -6.046875 5.832031 -6.222656 C 5.945312 -6.285156 6.09375 -6.433594 6.269531 -6.671875 C 6.445312 -6.910156 6.535156 -7.253906 6.535156 -7.699219 C 6.535156 -8 6.476562 -8.308594 6.363281 -8.625 C 6.25 -8.941406 6.03125 -9.207031 5.707031 -9.425781 C 5.386719 -9.644531 4.90625 -9.753906 4.261719 -9.753906 C 3.835938 -9.753906 3.558594 -9.695312 3.429688 -9.582031 C 3.300781 -9.46875 3.234375 -9.292969 3.234375 -9.054688 L 3.234375 -6.347656 C 3.234375 -6.078125 3.324219 -5.914062 3.5 -5.855469 C 3.675781 -5.800781 3.828125 -5.769531 3.949219 -5.769531 Z "/>
</g>
<g id="glyph-0-1">
<path d="M 0.605469 0.046875 C 0.554688 0.046875 0.488281 0.0390625 0.414062 0.0234375 C 0.335938 0.0078125 0.296875 -0.03125 0.296875 -0.09375 C 0.296875 -0.175781 0.335938 -0.234375 0.414062 -0.273438 C 0.492188 -0.308594 0.570312 -0.34375 0.652344 -0.375 C 0.808594 -0.425781 0.960938 -0.484375 1.105469 -0.550781 C 1.25 -0.621094 1.320312 -0.757812 1.320312 -0.964844 L 1.320312 -8.804688 C 1.320312 -9.105469 1.269531 -9.355469 1.160156 -9.558594 C 1.050781 -9.761719 0.867188 -9.886719 0.605469 -9.941406 C 0.523438 -9.960938 0.480469 -10.027344 0.480469 -10.140625 C 0.480469 -10.246094 0.519531 -10.308594 0.589844 -10.328125 C 0.859375 -10.390625 1.09375 -10.457031 1.292969 -10.523438 C 1.488281 -10.589844 1.671875 -10.660156 1.84375 -10.734375 C 2.015625 -10.804688 2.183594 -10.875 2.347656 -10.9375 C 2.390625 -10.957031 2.421875 -10.964844 2.441406 -10.964844 C 2.460938 -10.964844 2.480469 -10.953125 2.496094 -10.929688 C 2.511719 -10.902344 2.519531 -10.878906 2.519531 -10.859375 C 2.519531 -10.765625 2.5 -10.566406 2.464844 -10.257812 C 2.429688 -9.953125 2.410156 -9.449219 2.410156 -8.742188 L 2.410156 -0.964844 C 2.410156 -0.757812 2.484375 -0.621094 2.628906 -0.550781 C 2.773438 -0.484375 2.925781 -0.425781 3.078125 -0.375 C 3.164062 -0.34375 3.242188 -0.308594 3.320312 -0.273438 C 3.398438 -0.238281 3.4375 -0.175781 3.4375 -0.09375 C 3.4375 -0.03125 3.398438 0.0078125 3.320312 0.0234375 C 3.242188 0.0390625 3.179688 0.046875 3.125 0.046875 C 2.929688 0.046875 2.773438 0.0390625 2.652344 0.0234375 C 2.53125 0.0078125 2.417969 -0.00390625 2.308594 -0.015625 C 2.199219 -0.0273438 2.054688 -0.03125 1.867188 -0.03125 C 1.691406 -0.03125 1.546875 -0.0273438 1.429688 -0.015625 C 1.316406 -0.00390625 1.203125 0.0078125 1.089844 0.0234375 C 0.976562 0.0390625 0.8125 0.046875 0.605469 0.046875 Z "/>
</g>
<g id="glyph-0-2">
<path d="M 3.640625 0.21875 C 3.058594 0.21875 2.535156 0.0820312 2.070312 -0.1875 C 1.601562 -0.457031 1.230469 -0.828125 0.957031 -1.300781 C 0.683594 -1.769531 0.542969 -2.308594 0.542969 -2.910156 C 0.542969 -3.34375 0.628906 -3.769531 0.800781 -4.183594 C 0.972656 -4.597656 1.214844 -4.976562 1.523438 -5.320312 C 1.835938 -5.664062 2.199219 -5.933594 2.613281 -6.136719 C 3.027344 -6.339844 3.472656 -6.441406 3.949219 -6.441406 C 4.550781 -6.441406 5.09375 -6.292969 5.578125 -6.003906 C 6.058594 -5.714844 6.441406 -5.332031 6.726562 -4.859375 C 7.011719 -4.390625 7.15625 -3.875 7.15625 -3.3125 C 7.15625 -2.710938 7.023438 -2.140625 6.757812 -1.601562 C 6.492188 -1.0625 6.101562 -0.625 5.585938 -0.289062 C 5.066406 0.0507812 4.417969 0.21875 3.640625 0.21875 Z M 3.964844 -0.25 C 4.320312 -0.25 4.636719 -0.316406 4.914062 -0.449219 C 5.195312 -0.585938 5.414062 -0.804688 5.570312 -1.105469 C 5.695312 -1.34375 5.777344 -1.632812 5.816406 -1.976562 C 5.859375 -2.316406 5.878906 -2.640625 5.878906 -2.941406 C 5.878906 -3.4375 5.789062 -3.917969 5.609375 -4.378906 C 5.425781 -4.839844 5.171875 -5.21875 4.84375 -5.515625 C 4.519531 -5.808594 4.132812 -5.957031 3.6875 -5.957031 C 3.40625 -5.957031 3.15625 -5.914062 2.933594 -5.824219 C 2.710938 -5.738281 2.503906 -5.574219 2.316406 -5.335938 C 2.109375 -5.078125 1.976562 -4.761719 1.914062 -4.386719 C 1.851562 -4.011719 1.820312 -3.640625 1.820312 -3.265625 C 1.820312 -2.757812 1.914062 -2.273438 2.101562 -1.8125 C 2.289062 -1.351562 2.539062 -0.976562 2.863281 -0.683594 C 3.183594 -0.394531 3.550781 -0.25 3.964844 -0.25 Z "/>
</g>
<g id="glyph-0-3">
<path d="M 3.3125 0.234375 C 2.792969 0.234375 2.324219 0.101562 1.90625 -0.164062 C 1.484375 -0.429688 1.152344 -0.789062 0.910156 -1.253906 C 0.667969 -1.714844 0.542969 -2.230469 0.542969 -2.800781 C 0.542969 -3.472656 0.691406 -4.085938 0.988281 -4.636719 C 1.285156 -5.1875 1.679688 -5.625 2.179688 -5.949219 C 2.675781 -6.277344 3.226562 -6.441406 3.828125 -6.441406 C 4.5 -6.441406 5.09375 -6.257812 5.601562 -5.894531 C 5.726562 -5.800781 5.785156 -5.703125 5.785156 -5.601562 C 5.785156 -5.519531 5.75 -5.421875 5.679688 -5.320312 C 5.605469 -5.214844 5.515625 -5.128906 5.414062 -5.0625 C 5.308594 -4.996094 5.210938 -4.960938 5.117188 -4.960938 C 5.066406 -4.960938 5.015625 -4.980469 4.960938 -5.015625 C 4.910156 -5.050781 4.851562 -5.09375 4.792969 -5.132812 C 4.5625 -5.308594 4.308594 -5.476562 4.027344 -5.632812 C 3.75 -5.789062 3.515625 -5.863281 3.328125 -5.863281 C 2.820312 -5.863281 2.410156 -5.628906 2.09375 -5.15625 C 1.777344 -4.683594 1.617188 -4.066406 1.617188 -3.296875 C 1.617188 -2.808594 1.722656 -2.371094 1.9375 -1.976562 C 2.148438 -1.582031 2.433594 -1.269531 2.792969 -1.042969 C 3.148438 -0.8125 3.546875 -0.699219 3.980469 -0.699219 C 4.28125 -0.699219 4.542969 -0.75 4.761719 -0.847656 C 4.976562 -0.945312 5.210938 -1.121094 5.460938 -1.367188 C 5.480469 -1.390625 5.507812 -1.40625 5.539062 -1.421875 C 5.570312 -1.4375 5.59375 -1.445312 5.617188 -1.445312 C 5.730469 -1.445312 5.785156 -1.375 5.785156 -1.230469 C 5.785156 -1.167969 5.769531 -1.097656 5.730469 -1.019531 C 5.695312 -0.941406 5.636719 -0.851562 5.554688 -0.746094 C 5.386719 -0.539062 5.191406 -0.359375 4.960938 -0.210938 C 4.734375 -0.0585938 4.484375 0.0507812 4.207031 0.125 C 3.933594 0.195312 3.636719 0.234375 3.3125 0.234375 Z "/>
</g>
<g id="glyph-0-4">
<path d="M 0.652344 0.046875 C 0.414062 0.046875 0.296875 -0.0117188 0.296875 -0.125 C 0.296875 -0.207031 0.335938 -0.261719 0.414062 -0.289062 C 0.492188 -0.3125 0.570312 -0.34375 0.652344 -0.375 C 0.808594 -0.425781 0.960938 -0.492188 1.105469 -0.574219 C 1.25 -0.65625 1.320312 -0.804688 1.320312 -1.011719 L 1.320312 -8.804688 C 1.320312 -9.167969 1.269531 -9.433594 1.167969 -9.597656 C 1.0625 -9.765625 0.882812 -9.878906 0.621094 -9.941406 C 0.527344 -9.960938 0.480469 -10.027344 0.480469 -10.140625 C 0.480469 -10.246094 0.523438 -10.308594 0.605469 -10.328125 C 0.875 -10.390625 1.109375 -10.457031 1.308594 -10.523438 C 1.503906 -10.589844 1.683594 -10.660156 1.84375 -10.726562 C 2.003906 -10.792969 2.164062 -10.859375 2.316406 -10.921875 C 2.378906 -10.953125 2.425781 -10.964844 2.457031 -10.964844 C 2.488281 -10.964844 2.511719 -10.957031 2.527344 -10.9375 C 2.542969 -10.914062 2.550781 -10.878906 2.550781 -10.828125 C 2.550781 -10.722656 2.527344 -10.515625 2.480469 -10.203125 C 2.433594 -9.894531 2.410156 -9.40625 2.410156 -8.742188 L 2.410156 -3.640625 C 2.410156 -3.546875 2.4375 -3.5 2.488281 -3.5 C 2.550781 -3.5 2.632812 -3.527344 2.730469 -3.578125 C 2.828125 -3.628906 2.933594 -3.707031 3.050781 -3.8125 C 3.476562 -4.175781 3.828125 -4.503906 4.113281 -4.800781 C 4.398438 -5.09375 4.59375 -5.300781 4.699219 -5.414062 C 4.75 -5.476562 4.785156 -5.523438 4.808594 -5.5625 C 4.828125 -5.597656 4.835938 -5.625 4.835938 -5.648438 C 4.835938 -5.699219 4.792969 -5.746094 4.707031 -5.785156 C 4.617188 -5.828125 4.527344 -5.859375 4.433594 -5.878906 C 4.308594 -5.910156 4.246094 -5.964844 4.246094 -6.035156 C 4.246094 -6.085938 4.277344 -6.132812 4.339844 -6.167969 C 4.402344 -6.203125 4.484375 -6.222656 4.589844 -6.222656 L 5.351562 -6.222656 C 5.515625 -6.222656 5.691406 -6.238281 5.871094 -6.269531 C 6.054688 -6.300781 6.226562 -6.332031 6.386719 -6.363281 C 6.546875 -6.394531 6.671875 -6.410156 6.765625 -6.410156 C 6.910156 -6.410156 6.984375 -6.355469 6.984375 -6.253906 C 6.984375 -6.191406 6.949219 -6.136719 6.875 -6.089844 C 6.804688 -6.042969 6.710938 -6.003906 6.59375 -5.972656 C 6.398438 -5.921875 6.214844 -5.847656 6.042969 -5.753906 C 5.871094 -5.660156 5.714844 -5.574219 5.570312 -5.492188 C 5.507812 -5.449219 5.363281 -5.339844 5.140625 -5.15625 C 4.917969 -4.976562 4.664062 -4.765625 4.378906 -4.527344 C 4.09375 -4.289062 3.828125 -4.058594 3.578125 -3.84375 C 3.515625 -3.78125 3.484375 -3.726562 3.484375 -3.6875 C 3.484375 -3.675781 3.488281 -3.660156 3.5 -3.640625 C 3.511719 -3.621094 3.519531 -3.597656 3.53125 -3.578125 C 3.800781 -3.246094 4.089844 -2.910156 4.402344 -2.566406 C 4.714844 -2.222656 5 -1.921875 5.265625 -1.664062 C 5.53125 -1.40625 5.714844 -1.222656 5.816406 -1.121094 C 5.992188 -0.953125 6.195312 -0.804688 6.417969 -0.675781 C 6.640625 -0.546875 6.828125 -0.457031 6.984375 -0.40625 C 7.097656 -0.363281 7.203125 -0.328125 7.304688 -0.296875 C 7.402344 -0.265625 7.449219 -0.207031 7.449219 -0.125 C 7.449219 -0.0117188 7.347656 0.046875 7.140625 0.046875 C 6.734375 0.046875 6.28125 0.0390625 5.777344 0.0234375 C 5.277344 0.0078125 4.761719 0 4.230469 0 C 4.042969 0 3.949219 -0.046875 3.949219 -0.140625 C 3.949219 -0.203125 3.976562 -0.253906 4.027344 -0.296875 C 4.082031 -0.335938 4.144531 -0.367188 4.214844 -0.390625 C 4.328125 -0.429688 4.429688 -0.476562 4.511719 -0.527344 C 4.59375 -0.582031 4.636719 -0.652344 4.636719 -0.746094 C 4.636719 -0.777344 4.625 -0.8125 4.605469 -0.847656 C 4.585938 -0.882812 4.558594 -0.921875 4.527344 -0.964844 L 2.644531 -3.09375 C 2.582031 -3.167969 2.53125 -3.203125 2.488281 -3.203125 C 2.4375 -3.203125 2.410156 -3.167969 2.410156 -3.09375 C 2.402344 -2.949219 2.394531 -2.792969 2.394531 -2.621094 C 2.394531 -2.449219 2.394531 -2.277344 2.394531 -2.101562 C 2.394531 -1.925781 2.394531 -1.742188 2.394531 -1.554688 C 2.394531 -1.367188 2.402344 -1.1875 2.410156 -1.011719 C 2.410156 -0.804688 2.464844 -0.660156 2.566406 -0.574219 C 2.671875 -0.492188 2.800781 -0.425781 2.957031 -0.375 C 3.039062 -0.34375 3.117188 -0.3125 3.195312 -0.289062 C 3.273438 -0.261719 3.3125 -0.207031 3.3125 -0.125 C 3.3125 -0.0507812 3.265625 -0.00390625 3.164062 0.015625 C 3.066406 0.0351562 2.996094 0.046875 2.957031 0.046875 C 2.757812 0.046875 2.613281 0.0390625 2.519531 0.0234375 C 2.425781 0.0078125 2.339844 -0.00390625 2.261719 -0.015625 C 2.183594 -0.0273438 2.054688 -0.03125 1.867188 -0.03125 C 1.691406 -0.03125 1.550781 -0.0273438 1.445312 -0.015625 C 1.34375 -0.00390625 1.238281 0.0078125 1.128906 0.0234375 C 1.019531 0.0390625 0.859375 0.046875 0.652344 0.046875 Z "/>
</g>
</g>
</defs>
<g fill="rgb(23.921569%, 22.352941%, 16.078431%)" fill-opacity="1">
<use xlink:href="#glyph-0-0" x="30" y="35.665039"/>
<use xlink:href="#glyph-0-1" x="39" y="35.665039"/>
<use xlink:href="#glyph-0-2" x="43" y="35.665039"/>
<use xlink:href="#glyph-0-3" x="51" y="35.665039"/>
<use xlink:href="#glyph-0-4" x="57" y="35.665039"/>
</g>
</svg>
