<?xml version="1.0" encoding="UTF-8"?>
<svg xmlns="http://www.w3.org/2000/svg" xmlns:xlink="http://www.w3.org/1999/xlink" width="854" height="480" viewBox="0 0 854 480">
<defs>
<g>
<g id="glyph-0-0">
<path d="M 6.332031 0.234375 C 5.605469 0.234375 4.90625 0.109375 4.230469 -0.140625 C 3.558594 -0.390625 2.957031 -0.742188 2.425781 -1.207031 C 1.898438 -1.667969 1.480469 -2.222656 1.175781 -2.871094 C 0.867188 -3.519531 0.714844 -4.234375 0.714844 -5.023438 C 0.714844 -5.78125 0.875 -6.480469 1.199219 -7.125 C 1.519531 -7.769531 1.960938 -8.328125 2.519531 -8.804688 C 3.078125 -9.28125 3.71875 -9.652344 4.441406 -9.917969 C 5.160156 -10.179688 5.921875 -10.3125 6.71875 -10.3125 C 7.125 -10.3125 7.464844 -10.296875 7.746094 -10.265625 C 8.027344 -10.234375 8.300781 -10.191406 8.5625 -10.132812 C 8.828125 -10.078125 9.136719 -10.003906 9.488281 -9.910156 C 9.644531 -9.867188 9.757812 -9.804688 9.824219 -9.722656 C 9.890625 -9.640625 9.929688 -9.523438 9.941406 -9.378906 C 9.960938 -9.140625 9.988281 -8.886719 10.019531 -8.609375 C 10.050781 -8.335938 10.070312 -7.996094 10.078125 -7.589844 C 10.089844 -7.519531 10.058594 -7.457031 9.980469 -7.414062 C 9.902344 -7.367188 9.816406 -7.351562 9.730469 -7.375 C 9.640625 -7.394531 9.582031 -7.460938 9.550781 -7.574219 C 9.449219 -7.96875 9.328125 -8.308594 9.195312 -8.59375 C 9.058594 -8.878906 8.855469 -9.117188 8.585938 -9.300781 C 8.328125 -9.476562 8.015625 -9.609375 7.644531 -9.699219 C 7.277344 -9.789062 6.878906 -9.832031 6.457031 -9.832031 C 5.855469 -9.832031 5.296875 -9.710938 4.785156 -9.464844 C 4.269531 -9.222656 3.828125 -8.890625 3.460938 -8.46875 C 3.09375 -8.050781 2.804688 -7.574219 2.597656 -7.046875 C 2.390625 -6.519531 2.285156 -5.96875 2.285156 -5.398438 C 2.285156 -4.765625 2.386719 -4.144531 2.589844 -3.53125 C 2.792969 -2.917969 3.082031 -2.367188 3.460938 -1.875 C 3.839844 -1.382812 4.289062 -0.988281 4.816406 -0.691406 C 5.339844 -0.394531 5.921875 -0.25 6.566406 -0.25 C 7.3125 -0.25 7.929688 -0.421875 8.414062 -0.761719 C 8.902344 -1.105469 9.316406 -1.582031 9.660156 -2.191406 C 9.734375 -2.328125 9.839844 -2.394531 9.980469 -2.394531 C 10.121094 -2.394531 10.1875 -2.3125 10.1875 -2.148438 C 10.1875 -2.0625 10.167969 -1.929688 10.125 -1.75 C 10.085938 -1.570312 10.03125 -1.375 9.964844 -1.175781 C 9.894531 -0.972656 9.832031 -0.792969 9.769531 -0.636719 C 9.695312 -0.492188 9.636719 -0.398438 9.589844 -0.359375 C 9.542969 -0.316406 9.4375 -0.269531 9.269531 -0.21875 C 8.886719 -0.0625 8.429688 0.0507812 7.894531 0.125 C 7.359375 0.195312 6.839844 0.234375 6.332031 0.234375 Z "/>
</g>
<g id="glyph-0-1">
<path d="M 1.820312 0.21875 C 1.632812 0.21875 1.445312 0.144531 1.253906 0 C 1.0625 -0.144531 0.898438 -0.320312 0.769531 -0.527344 C 0.640625 -0.734375 0.574219 -0.933594 0.574219 -1.121094 C 0.574219 -1.453125 0.664062 -1.710938 0.839844 -1.898438 C 1.015625 -2.085938 1.296875 -2.253906 1.679688 -2.410156 L 3.265625 -3.066406 C 3.472656 -3.148438 3.597656 -3.21875 3.632812 -3.28125 C 3.667969 -3.34375 3.691406 -3.480469 3.703125 -3.6875 L 3.734375 -4.683594 C 3.742188 -4.953125 3.667969 -5.183594 3.507812 -5.382812 C 3.347656 -5.578125 3.117188 -5.679688 2.816406 -5.679688 C 2.660156 -5.679688 2.503906 -5.652344 2.347656 -5.601562 C 2.191406 -5.546875 2.0625 -5.480469 1.960938 -5.398438 C 1.898438 -5.355469 1.855469 -5.292969 1.835938 -5.210938 C 1.816406 -5.128906 1.804688 -5.039062 1.804688 -4.945312 C 1.804688 -4.90625 1.808594 -4.859375 1.8125 -4.808594 C 1.816406 -4.753906 1.820312 -4.707031 1.820312 -4.667969 C 1.820312 -4.617188 1.753906 -4.542969 1.625 -4.457031 C 1.496094 -4.367188 1.351562 -4.289062 1.191406 -4.222656 C 1.03125 -4.15625 0.898438 -4.121094 0.792969 -4.121094 C 0.742188 -4.121094 0.699219 -4.136719 0.667969 -4.160156 C 0.636719 -4.1875 0.621094 -4.222656 0.621094 -4.261719 C 0.621094 -4.429688 0.675781 -4.605469 0.785156 -4.800781 C 0.894531 -4.992188 1.046875 -5.167969 1.246094 -5.335938 C 1.484375 -5.554688 1.742188 -5.746094 2.023438 -5.910156 C 2.300781 -6.078125 2.578125 -6.207031 2.847656 -6.300781 C 3.117188 -6.394531 3.355469 -6.441406 3.5625 -6.441406 C 3.9375 -6.441406 4.242188 -6.308594 4.488281 -6.042969 C 4.730469 -5.777344 4.847656 -5.449219 4.835938 -5.054688 L 4.761719 -1.320312 C 4.75 -1.105469 4.800781 -0.929688 4.90625 -0.792969 C 5.015625 -0.660156 5.152344 -0.589844 5.320312 -0.589844 C 5.578125 -0.589844 5.769531 -0.648438 5.894531 -0.761719 C 5.945312 -0.8125 5.988281 -0.839844 6.019531 -0.839844 C 6.070312 -0.839844 6.113281 -0.824219 6.144531 -0.792969 C 6.175781 -0.761719 6.191406 -0.722656 6.191406 -0.667969 C 6.191406 -0.554688 6.132812 -0.441406 6.019531 -0.328125 C 5.855469 -0.160156 5.675781 -0.0273438 5.484375 0.0703125 C 5.292969 0.167969 5.113281 0.21875 4.945312 0.21875 C 4.46875 0.21875 4.089844 -0.0507812 3.8125 -0.589844 L 3.765625 -0.589844 C 3.421875 -0.3125 3.09375 -0.105469 2.785156 0.0234375 C 2.472656 0.152344 2.152344 0.21875 1.820312 0.21875 Z M 2.550781 -0.527344 C 2.757812 -0.527344 2.933594 -0.5625 3.078125 -0.628906 C 3.222656 -0.695312 3.355469 -0.789062 3.46875 -0.902344 C 3.519531 -0.953125 3.566406 -1.023438 3.601562 -1.113281 C 3.636719 -1.199219 3.660156 -1.34375 3.671875 -1.539062 L 3.703125 -2.300781 C 3.714844 -2.414062 3.707031 -2.5 3.6875 -2.550781 C 3.667969 -2.601562 3.625 -2.628906 3.5625 -2.628906 C 3.542969 -2.628906 3.503906 -2.625 3.453125 -2.613281 C 3.402344 -2.601562 3.335938 -2.582031 3.25 -2.550781 C 2.699219 -2.355469 2.320312 -2.148438 2.109375 -1.9375 C 1.894531 -1.722656 1.789062 -1.53125 1.789062 -1.351562 C 1.789062 -1.082031 1.871094 -0.878906 2.03125 -0.738281 C 2.191406 -0.597656 2.363281 -0.527344 2.550781 -0.527344 Z "/>
</g>
<g id="glyph-0-2">
<path d="M 0.683594 0.046875 C 0.589844 0.046875 0.515625 0.0351562 0.457031 0.0078125 C 0.402344 -0.0195312 0.375 -0.0625 0.375 -0.125 C 0.375 -0.207031 0.40625 -0.261719 0.464844 -0.289062 C 0.527344 -0.3125 0.617188 -0.34375 0.730469 -0.375 C 0.886719 -0.414062 1.035156 -0.472656 1.183594 -0.542969 C 1.328125 -0.617188 1.398438 -0.757812 1.398438 -0.964844 L 1.398438 -4.308594 C 1.398438 -4.589844 1.371094 -4.828125 1.316406 -5.023438 C 1.257812 -5.222656 1.09375 -5.355469 0.824219 -5.429688 C 0.78125 -5.449219 0.746094 -5.472656 0.714844 -5.5 C 0.683594 -5.523438 0.667969 -5.570312 0.667969 -5.632812 C 0.667969 -5.746094 0.714844 -5.808594 0.808594 -5.816406 C 1.171875 -5.910156 1.46875 -6.023438 1.695312 -6.160156 C 1.921875 -6.292969 2.148438 -6.445312 2.363281 -6.609375 C 2.394531 -6.632812 2.425781 -6.648438 2.449219 -6.664062 C 2.476562 -6.679688 2.503906 -6.6875 2.535156 -6.6875 C 2.554688 -6.6875 2.574219 -6.679688 2.589844 -6.65625 C 2.605469 -6.636719 2.613281 -6.609375 2.613281 -6.578125 C 2.613281 -6.507812 2.601562 -6.359375 2.574219 -6.136719 C 2.546875 -5.914062 2.535156 -5.730469 2.535156 -5.585938 C 2.535156 -5.542969 2.539062 -5.503906 2.542969 -5.46875 C 2.546875 -5.433594 2.554688 -5.40625 2.566406 -5.398438 C 2.929688 -5.742188 3.316406 -6 3.726562 -6.175781 C 4.136719 -6.351562 4.582031 -6.441406 5.070312 -6.441406 C 5.578125 -6.441406 6 -6.234375 6.332031 -5.816406 C 6.664062 -5.402344 6.828125 -4.890625 6.828125 -4.277344 L 6.828125 -0.964844 C 6.828125 -0.757812 6.902344 -0.621094 7.046875 -0.550781 C 7.191406 -0.484375 7.34375 -0.425781 7.496094 -0.375 C 7.582031 -0.34375 7.660156 -0.308594 7.738281 -0.273438 C 7.816406 -0.238281 7.855469 -0.175781 7.855469 -0.09375 C 7.855469 -0.03125 7.820312 0.0078125 7.746094 0.0234375 C 7.675781 0.0390625 7.605469 0.046875 7.542969 0.046875 C 7.335938 0.046875 7.175781 0.0390625 7.0625 0.0234375 C 6.949219 0.0078125 6.839844 -0.00390625 6.734375 -0.015625 C 6.632812 -0.0273438 6.488281 -0.03125 6.300781 -0.03125 C 6.125 -0.03125 5.980469 -0.0273438 5.863281 -0.015625 C 5.75 -0.00390625 5.632812 0.0078125 5.515625 0.0234375 C 5.394531 0.0390625 5.230469 0.046875 5.023438 0.046875 C 4.972656 0.046875 4.90625 0.0390625 4.828125 0.0234375 C 4.75 0.0078125 4.714844 -0.03125 4.714844 -0.09375 C 4.714844 -0.175781 4.753906 -0.234375 4.828125 -0.273438 C 4.90625 -0.308594 4.988281 -0.34375 5.070312 -0.375 C 5.226562 -0.425781 5.378906 -0.484375 5.523438 -0.550781 C 5.667969 -0.621094 5.738281 -0.757812 5.738281 -0.964844 L 5.738281 -4.230469 C 5.738281 -4.6875 5.613281 -5.042969 5.359375 -5.296875 C 5.105469 -5.550781 4.765625 -5.683594 4.339844 -5.695312 C 3.964844 -5.695312 3.640625 -5.632812 3.359375 -5.515625 C 3.078125 -5.394531 2.832031 -5.246094 2.613281 -5.070312 C 2.570312 -5.03125 2.539062 -4.976562 2.519531 -4.90625 C 2.5 -4.839844 2.488281 -4.777344 2.488281 -4.714844 L 2.488281 -0.964844 C 2.488281 -0.757812 2.5625 -0.617188 2.707031 -0.542969 C 2.851562 -0.472656 3.003906 -0.414062 3.15625 -0.375 C 3.394531 -0.3125 3.515625 -0.226562 3.515625 -0.125 C 3.515625 -0.0625 3.488281 -0.0195312 3.4375 0.0078125 C 3.386719 0.0351562 3.308594 0.046875 3.203125 0.046875 C 2.996094 0.046875 2.832031 0.0390625 2.714844 0.0234375 C 2.59375 0.0078125 2.484375 -0.00390625 2.378906 -0.015625 C 2.277344 -0.0273438 2.132812 -0.03125 1.945312 -0.03125 C 1.769531 -0.03125 1.625 -0.0273438 1.515625 -0.015625 C 1.40625 -0.00390625 1.292969 0.0078125 1.175781 0.0234375 C 1.054688 0.0390625 0.890625 0.046875 0.683594 0.046875 Z "/>
</g>
<g id="glyph-0-3">
<path d="M 5.554688 0.296875 C 5.53125 0.296875 5.5 0.273438 5.453125 0.234375 C 5.40625 0.191406 5.382812 0.160156 5.382812 0.140625 C 5.382812 0.0351562 5.394531 -0.113281 5.421875 -0.304688 C 5.449219 -0.496094 5.460938 -0.660156 5.460938 -0.792969 L 5.460938 -0.886719 C 5.304688 -0.648438 5.054688 -0.40625 4.714844 -0.15625 C 4.371094 0.09375 3.941406 0.21875 3.421875 0.21875 C 2.832031 0.21875 2.320312 0.0625 1.890625 -0.25 C 1.460938 -0.558594 1.128906 -0.960938 0.894531 -1.445312 C 0.660156 -1.933594 0.542969 -2.4375 0.542969 -2.957031 C 0.542969 -3.558594 0.683594 -4.121094 0.964844 -4.652344 C 1.246094 -5.179688 1.644531 -5.609375 2.171875 -5.941406 C 2.695312 -6.273438 3.320312 -6.441406 4.042969 -6.441406 C 4.25 -6.441406 4.460938 -6.421875 4.675781 -6.386719 C 4.886719 -6.351562 5.050781 -6.308594 5.164062 -6.269531 C 5.257812 -6.238281 5.324219 -6.222656 5.367188 -6.222656 C 5.441406 -6.222656 5.476562 -6.347656 5.476562 -6.59375 L 5.476562 -8.804688 C 5.476562 -9.230469 5.40625 -9.515625 5.273438 -9.660156 C 5.136719 -9.804688 4.945312 -9.898438 4.699219 -9.941406 C 4.605469 -9.960938 4.558594 -10.027344 4.558594 -10.140625 C 4.558594 -10.234375 4.597656 -10.296875 4.683594 -10.328125 C 5.140625 -10.441406 5.496094 -10.550781 5.753906 -10.65625 C 6.015625 -10.757812 6.21875 -10.84375 6.363281 -10.90625 C 6.402344 -10.925781 6.441406 -10.9375 6.480469 -10.945312 C 6.515625 -10.949219 6.542969 -10.953125 6.566406 -10.953125 C 6.628906 -10.953125 6.664062 -10.921875 6.671875 -10.859375 C 6.671875 -10.796875 6.664062 -10.6875 6.648438 -10.539062 C 6.632812 -10.386719 6.617188 -10.167969 6.59375 -9.878906 C 6.574219 -9.585938 6.566406 -9.207031 6.566406 -8.742188 L 6.566406 -1.710938 C 6.566406 -1.359375 6.589844 -1.101562 6.640625 -0.941406 C 6.695312 -0.78125 6.777344 -0.699219 6.890625 -0.699219 C 6.941406 -0.699219 7.035156 -0.707031 7.164062 -0.714844 C 7.292969 -0.726562 7.425781 -0.734375 7.558594 -0.746094 C 7.746094 -0.757812 7.839844 -0.710938 7.839844 -0.605469 C 7.839844 -0.535156 7.816406 -0.46875 7.769531 -0.414062 C 7.722656 -0.355469 7.675781 -0.328125 7.621094 -0.328125 C 7.332031 -0.285156 7.046875 -0.226562 6.765625 -0.148438 C 6.488281 -0.0703125 6.164062 0.046875 5.800781 0.203125 C 5.71875 0.242188 5.664062 0.269531 5.640625 0.28125 C 5.613281 0.289062 5.585938 0.296875 5.554688 0.296875 Z M 3.980469 -0.589844 C 4.25 -0.589844 4.515625 -0.660156 4.777344 -0.800781 C 5.035156 -0.941406 5.261719 -1.125 5.460938 -1.351562 L 5.476562 -4.152344 C 5.476562 -4.433594 5.394531 -4.707031 5.234375 -4.976562 C 5.074219 -5.246094 4.851562 -5.46875 4.566406 -5.640625 C 4.28125 -5.8125 3.945312 -5.894531 3.5625 -5.894531 C 3.324219 -5.894531 3.054688 -5.824219 2.753906 -5.679688 C 2.453125 -5.535156 2.191406 -5.277344 1.976562 -4.90625 C 1.757812 -4.539062 1.648438 -4.007812 1.648438 -3.3125 C 1.648438 -2.722656 1.738281 -2.246094 1.914062 -1.890625 C 2.089844 -1.53125 2.304688 -1.261719 2.558594 -1.074219 C 2.8125 -0.886719 3.070312 -0.757812 3.335938 -0.691406 C 3.601562 -0.625 3.816406 -0.589844 3.980469 -0.589844 Z "/>
</g>
<g id="glyph-0-4">
<path d="M 0.683594 0.046875 C 0.589844 0.046875 0.515625 0.0351562 0.457031 0.0078125 C 0.402344 -0.0195312 0.375 -0.0625 0.375 -0.125 C 0.375 -0.207031 0.414062 -0.265625 0.488281 -0.296875 C 0.566406 -0.328125 0.648438 -0.351562 0.730469 -0.375 C 0.949219 -0.425781 1.113281 -0.488281 1.230469 -0.566406 C 1.34375 -0.644531 1.398438 -0.777344 1.398438 -0.964844 L 1.398438 -4.339844 C 1.398438 -4.621094 1.351562 -4.867188 1.253906 -5.085938 C 1.152344 -5.304688 0.96875 -5.433594 0.699219 -5.476562 C 0.648438 -5.484375 0.609375 -5.507812 0.582031 -5.539062 C 0.558594 -5.570312 0.542969 -5.617188 0.542969 -5.679688 C 0.542969 -5.792969 0.589844 -5.855469 0.683594 -5.863281 C 1.097656 -5.957031 1.441406 -6.085938 1.710938 -6.246094 C 1.980469 -6.40625 2.183594 -6.539062 2.316406 -6.640625 C 2.410156 -6.714844 2.484375 -6.75 2.535156 -6.75 C 2.597656 -6.75 2.628906 -6.726562 2.628906 -6.671875 C 2.628906 -6.589844 2.617188 -6.425781 2.589844 -6.183594 C 2.5625 -5.941406 2.539062 -5.671875 2.519531 -5.375 C 2.5 -5.078125 2.488281 -4.8125 2.488281 -4.574219 L 2.488281 -0.964844 C 2.488281 -0.789062 2.546875 -0.660156 2.667969 -0.574219 C 2.789062 -0.492188 2.949219 -0.425781 3.15625 -0.375 C 3.242188 -0.351562 3.320312 -0.328125 3.398438 -0.296875 C 3.476562 -0.265625 3.515625 -0.207031 3.515625 -0.125 C 3.515625 -0.0117188 3.410156 0.046875 3.203125 0.046875 C 3.007812 0.046875 2.847656 0.0390625 2.730469 0.0234375 C 2.609375 0.0078125 2.496094 -0.00390625 2.386719 -0.015625 C 2.277344 -0.0273438 2.132812 -0.03125 1.945312 -0.03125 C 1.769531 -0.03125 1.621094 -0.0273438 1.507812 -0.015625 C 1.394531 -0.00390625 1.28125 0.0078125 1.167969 0.0234375 C 1.054688 0.0390625 0.890625 0.046875 0.683594 0.046875 Z M 1.929688 -8.027344 C 1.710938 -8.027344 1.527344 -8.101562 1.375 -8.253906 C 1.226562 -8.402344 1.152344 -8.585938 1.152344 -8.804688 C 1.152344 -9.03125 1.226562 -9.222656 1.375 -9.371094 C 1.527344 -9.523438 1.710938 -9.597656 1.929688 -9.597656 C 2.15625 -9.597656 2.347656 -9.523438 2.496094 -9.371094 C 2.648438 -9.222656 2.722656 -9.03125 2.722656 -8.804688 C 2.722656 -8.585938 2.648438 -8.402344 2.496094 -8.253906 C 2.347656 -8.101562 2.15625 -8.027344 1.929688 -8.027344 Z "/>
</g>
<g id="glyph-0-5">
<path d="M 2.941406 0.21875 C 2.433594 0.21875 2.035156 0.0625 1.75 -0.25 C 1.464844 -0.558594 1.320312 -1.023438 1.320312 -1.632812 L 1.320312 -5.242188 C 1.320312 -5.324219 1.292969 -5.386719 1.230469 -5.421875 C 1.167969 -5.457031 1.03125 -5.476562 0.824219 -5.476562 L 0.730469 -5.476562 C 0.679688 -5.476562 0.636719 -5.507812 0.597656 -5.578125 C 0.5625 -5.644531 0.542969 -5.714844 0.542969 -5.785156 C 0.542969 -5.808594 0.558594 -5.839844 0.589844 -5.878906 C 0.621094 -5.921875 0.644531 -5.949219 0.652344 -5.957031 C 0.859375 -6.101562 1.050781 -6.25 1.222656 -6.394531 C 1.394531 -6.539062 1.546875 -6.679688 1.6875 -6.820312 C 1.828125 -6.960938 1.945312 -7.089844 2.039062 -7.203125 C 2.089844 -7.253906 2.132812 -7.296875 2.171875 -7.335938 C 2.207031 -7.371094 2.25 -7.390625 2.300781 -7.390625 C 2.355469 -7.390625 2.402344 -7.378906 2.449219 -7.359375 C 2.496094 -7.335938 2.515625 -7.289062 2.503906 -7.21875 L 2.425781 -6.519531 C 2.414062 -6.40625 2.441406 -6.324219 2.503906 -6.285156 C 2.566406 -6.242188 2.664062 -6.222656 2.800781 -6.222656 L 4.574219 -6.222656 C 4.613281 -6.222656 4.652344 -6.1875 4.683594 -6.121094 C 4.714844 -6.054688 4.730469 -5.972656 4.730469 -5.878906 C 4.730469 -5.785156 4.714844 -5.695312 4.683594 -5.609375 C 4.652344 -5.519531 4.613281 -5.476562 4.574219 -5.476562 L 3.035156 -5.476562 C 2.773438 -5.476562 2.605469 -5.453125 2.527344 -5.414062 C 2.449219 -5.371094 2.410156 -5.246094 2.410156 -5.039062 L 2.410156 -1.976562 C 2.410156 -1.5625 2.5 -1.234375 2.675781 -0.996094 C 2.851562 -0.757812 3.105469 -0.636719 3.4375 -0.636719 C 3.738281 -0.636719 3.972656 -0.660156 4.136719 -0.707031 C 4.304688 -0.753906 4.453125 -0.824219 4.589844 -0.917969 C 4.609375 -0.9375 4.628906 -0.949219 4.652344 -0.949219 C 4.691406 -0.949219 4.722656 -0.925781 4.738281 -0.878906 C 4.753906 -0.832031 4.761719 -0.78125 4.761719 -0.730469 C 4.761719 -0.679688 4.675781 -0.574219 4.503906 -0.421875 C 4.332031 -0.265625 4.109375 -0.121094 3.835938 0.015625 C 3.558594 0.152344 3.261719 0.21875 2.941406 0.21875 Z "/>
</g>
<g id="glyph-0-6">
<path d="M 3.3125 0.234375 C 2.742188 0.234375 2.246094 0.09375 1.820312 -0.1875 C 1.394531 -0.46875 1.0625 -0.863281 0.824219 -1.375 C 0.585938 -1.890625 0.464844 -2.484375 0.464844 -3.15625 C 0.464844 -3.757812 0.605469 -4.304688 0.878906 -4.800781 C 1.152344 -5.292969 1.519531 -5.6875 1.976562 -5.988281 C 2.433594 -6.289062 2.929688 -6.441406 3.46875 -6.441406 C 3.882812 -6.441406 4.25 -6.355469 4.574219 -6.191406 C 4.894531 -6.023438 5.144531 -5.792969 5.328125 -5.5 C 5.507812 -5.203125 5.601562 -4.863281 5.601562 -4.480469 C 5.601562 -4.160156 5.445312 -3.996094 5.132812 -3.996094 L 1.851562 -3.996094 C 1.707031 -3.996094 1.605469 -3.957031 1.546875 -3.882812 C 1.492188 -3.804688 1.460938 -3.652344 1.460938 -3.421875 C 1.460938 -2.925781 1.570312 -2.472656 1.789062 -2.0625 C 2.007812 -1.652344 2.296875 -1.324219 2.660156 -1.082031 C 3.023438 -0.835938 3.421875 -0.714844 3.859375 -0.714844 C 4.167969 -0.714844 4.453125 -0.773438 4.707031 -0.894531 C 4.960938 -1.015625 5.183594 -1.1875 5.382812 -1.414062 C 5.425781 -1.46875 5.453125 -1.5 5.476562 -1.515625 C 5.496094 -1.53125 5.523438 -1.539062 5.554688 -1.539062 C 5.636719 -1.539062 5.679688 -1.488281 5.679688 -1.382812 C 5.679688 -1.1875 5.585938 -0.96875 5.398438 -0.730469 C 5.242188 -0.535156 5.054688 -0.363281 4.835938 -0.21875 C 4.621094 -0.0742188 4.382812 0.0390625 4.121094 0.117188 C 3.863281 0.195312 3.59375 0.234375 3.3125 0.234375 Z M 1.882812 -4.480469 L 3.296875 -4.480469 C 3.546875 -4.480469 3.757812 -4.484375 3.9375 -4.496094 C 4.113281 -4.507812 4.28125 -4.527344 4.449219 -4.558594 C 4.5 -4.570312 4.535156 -4.601562 4.550781 -4.660156 C 4.566406 -4.714844 4.574219 -4.796875 4.574219 -4.898438 C 4.574219 -5.199219 4.441406 -5.457031 4.175781 -5.671875 C 3.910156 -5.882812 3.597656 -5.988281 3.234375 -5.988281 C 2.996094 -5.988281 2.757812 -5.917969 2.519531 -5.777344 C 2.28125 -5.636719 2.085938 -5.464844 1.929688 -5.257812 C 1.773438 -5.050781 1.695312 -4.84375 1.695312 -4.636719 C 1.695312 -4.53125 1.757812 -4.480469 1.882812 -4.480469 Z "/>
</g>
<g id="glyph-0-7">
<path d="M 2.238281 0.21875 C 1.917969 0.21875 1.617188 0.167969 1.335938 0.0703125 C 1.058594 -0.0273438 0.820312 -0.164062 0.621094 -0.34375 C 0.570312 -0.457031 0.53125 -0.648438 0.503906 -0.917969 C 0.480469 -1.1875 0.460938 -1.410156 0.449219 -1.585938 C 0.449219 -1.679688 0.519531 -1.726562 0.652344 -1.726562 C 0.695312 -1.726562 0.734375 -1.71875 0.769531 -1.703125 C 0.804688 -1.6875 0.828125 -1.660156 0.839844 -1.617188 C 0.976562 -1.109375 1.191406 -0.746094 1.484375 -0.527344 C 1.78125 -0.3125 2.078125 -0.203125 2.378906 -0.203125 C 2.679688 -0.203125 2.9375 -0.304688 3.148438 -0.503906 C 3.363281 -0.707031 3.46875 -0.960938 3.46875 -1.261719 C 3.46875 -1.539062 3.375 -1.78125 3.1875 -1.984375 C 3 -2.1875 2.675781 -2.433594 2.207031 -2.722656 C 1.855469 -2.941406 1.570312 -3.148438 1.351562 -3.34375 C 1.136719 -3.542969 0.976562 -3.742188 0.878906 -3.949219 C 0.78125 -4.15625 0.730469 -4.390625 0.730469 -4.652344 C 0.730469 -4.984375 0.808594 -5.285156 0.964844 -5.554688 C 1.121094 -5.824219 1.351562 -6.039062 1.664062 -6.199219 C 1.976562 -6.359375 2.363281 -6.441406 2.832031 -6.441406 C 3.140625 -6.441406 3.402344 -6.410156 3.609375 -6.347656 C 3.816406 -6.285156 3.972656 -6.21875 4.074219 -6.144531 C 4.15625 -6.03125 4.230469 -5.851562 4.285156 -5.609375 C 4.34375 -5.363281 4.371094 -5.132812 4.371094 -4.914062 C 4.371094 -4.84375 4.320312 -4.808594 4.214844 -4.808594 C 4.152344 -4.808594 4.09375 -4.820312 4.035156 -4.84375 C 3.980469 -4.871094 3.941406 -4.90625 3.921875 -4.945312 C 3.785156 -5.289062 3.617188 -5.550781 3.414062 -5.730469 C 3.210938 -5.914062 2.960938 -6.003906 2.660156 -6.003906 C 2.402344 -6.003906 2.171875 -5.925781 1.96875 -5.769531 C 1.765625 -5.613281 1.664062 -5.386719 1.664062 -5.085938 C 1.664062 -4.847656 1.738281 -4.636719 1.890625 -4.449219 C 2.039062 -4.261719 2.324219 -4.050781 2.738281 -3.8125 C 3.339844 -3.46875 3.789062 -3.148438 4.082031 -2.855469 C 4.378906 -2.558594 4.527344 -2.167969 4.527344 -1.679688 C 4.527344 -1.121094 4.3125 -0.664062 3.890625 -0.3125 C 3.464844 0.0429688 2.914062 0.21875 2.238281 0.21875 Z "/>
</g>
</g>
</defs>
<g fill="rgb(23.921569%, 22.352941%, 16.078431%)" fill-opacity="1">
<use xlink:href="#glyph-0-0" x="30" y="35.665039"/>
<use xlink:href="#glyph-0-1" x="41" y="35.665039"/>
<use xlink:href="#glyph-0-2" x="47" y="35.665039"/>
<use xlink:href="#glyph-0-3" x="55" y="35.665039"/>
<use xlink:href="#glyph-0-4" x="63" y="35.665039"/>
<use xlink:href="#glyph-0-3" x="67" y="35.665039"/>
<use xlink:href="#glyph-0-1" x="75" y="35.665039"/>
<use xlink:href="#glyph-0-5" x="81" y="35.665039"/>
<use xlink:href="#glyph-0-6" x="86" y="35.665039"/>
<use xlink:href="#glyph-0-7" x="92" y="35.665039"/>
</g>
</svg>
