<?xml version="1.0" encoding="UTF-8"?>
<svg xmlns="http://www.w3.org/2000/svg" xmlns:xlink="http://www.w3.org/1999/xlink" width="854" height="480" viewBox="0 0 854 480">
<defs>
<g>
<g id="glyph-0-0">
<path d="M 6.613281 0.25 C 5.558594 0.25 4.675781 0.0625 3.964844 -0.3125 C 3.253906 -0.683594 2.71875 -1.210938 2.363281 -1.894531 C 2.007812 -2.574219 1.832031 -3.367188 1.832031 -4.265625 L 1.832031 -9.722656 C 1.832031 -10.148438 1.746094 -10.460938 1.574219 -10.65625 C 1.402344 -10.851562 1.214844 -10.972656 1.011719 -11.023438 C 0.621094 -11.128906 0.425781 -11.257812 0.425781 -11.414062 C 0.425781 -11.484375 0.472656 -11.535156 0.570312 -11.5625 C 0.664062 -11.59375 0.789062 -11.609375 0.941406 -11.609375 C 1.214844 -11.609375 1.484375 -11.601562 1.75 -11.582031 C 2.015625 -11.5625 2.316406 -11.554688 2.648438 -11.554688 C 2.921875 -11.554688 3.179688 -11.5625 3.421875 -11.574219 C 3.664062 -11.585938 3.882812 -11.589844 4.070312 -11.589844 C 4.226562 -11.589844 4.347656 -11.574219 4.445312 -11.546875 C 4.539062 -11.515625 4.585938 -11.464844 4.585938 -11.394531 C 4.585938 -11.3125 4.539062 -11.246094 4.445312 -11.199219 C 4.351562 -11.152344 4.203125 -11.097656 4 -11.039062 C 3.859375 -10.992188 3.699219 -10.855469 3.519531 -10.628906 C 3.34375 -10.40625 3.253906 -10.117188 3.253906 -9.757812 L 3.253906 -4.765625 C 3.253906 -3.816406 3.414062 -3.035156 3.734375 -2.425781 C 4.054688 -1.816406 4.496094 -1.367188 5.058594 -1.074219 C 5.621094 -0.785156 6.261719 -0.640625 6.988281 -0.640625 C 8.207031 -0.640625 9.101562 -1.0625 9.671875 -1.910156 C 10.238281 -2.757812 10.523438 -3.875 10.523438 -5.261719 C 10.523438 -5.523438 10.519531 -5.867188 10.515625 -6.292969 C 10.507812 -6.71875 10.5 -7.179688 10.488281 -7.671875 C 10.476562 -8.164062 10.464844 -8.632812 10.453125 -9.085938 C 10.453125 -9.394531 10.425781 -9.683594 10.375 -9.957031 C 10.320312 -10.226562 10.238281 -10.460938 10.132812 -10.65625 C 10.027344 -10.851562 9.890625 -10.972656 9.722656 -11.023438 C 9.605469 -11.058594 9.476562 -11.105469 9.34375 -11.164062 C 9.207031 -11.222656 9.136719 -11.292969 9.136719 -11.378906 C 9.136719 -11.449219 9.183594 -11.5 9.28125 -11.527344 C 9.375 -11.558594 9.5 -11.574219 9.652344 -11.574219 C 9.925781 -11.574219 10.152344 -11.570312 10.328125 -11.5625 C 10.507812 -11.558594 10.726562 -11.554688 10.988281 -11.554688 C 11.175781 -11.554688 11.355469 -11.558594 11.519531 -11.5625 C 11.6875 -11.570312 11.84375 -11.578125 12 -11.589844 C 12.152344 -11.601562 12.296875 -11.609375 12.425781 -11.609375 C 12.582031 -11.609375 12.703125 -11.59375 12.800781 -11.5625 C 12.894531 -11.535156 12.941406 -11.484375 12.941406 -11.414062 C 12.941406 -11.257812 12.746094 -11.140625 12.355469 -11.058594 C 12.046875 -11 11.828125 -10.851562 11.699219 -10.613281 C 11.566406 -10.375 11.488281 -10.078125 11.464844 -9.722656 C 11.40625 -8.703125 11.367188 -7.773438 11.351562 -6.933594 C 11.332031 -6.09375 11.3125 -5.261719 11.289062 -4.445312 C 11.265625 -3.53125 11.046875 -2.71875 10.628906 -2.007812 C 10.214844 -1.296875 9.660156 -0.742188 8.96875 -0.347656 C 8.273438 0.0507812 7.488281 0.25 6.613281 0.25 Z "/>
</g>
<g id="glyph-0-1">
<path d="M 0.78125 0.0546875 C 0.675781 0.0546875 0.589844 0.0390625 0.523438 0.0078125 C 0.457031 -0.0195312 0.425781 -0.0703125 0.425781 -0.140625 C 0.425781 -0.238281 0.460938 -0.300781 0.535156 -0.328125 C 0.605469 -0.359375 0.707031 -0.390625 0.835938 -0.425781 C 1.011719 -0.472656 1.183594 -0.539062 1.351562 -0.621094 C 1.515625 -0.703125 1.601562 -0.863281 1.601562 -1.101562 L 1.601562 -4.925781 C 1.601562 -5.246094 1.566406 -5.515625 1.503906 -5.742188 C 1.4375 -5.96875 1.25 -6.121094 0.941406 -6.203125 C 0.894531 -6.226562 0.851562 -6.253906 0.816406 -6.285156 C 0.78125 -6.3125 0.765625 -6.363281 0.765625 -6.433594 C 0.765625 -6.566406 0.816406 -6.636719 0.925781 -6.648438 C 1.339844 -6.753906 1.675781 -6.886719 1.9375 -7.039062 C 2.199219 -7.195312 2.453125 -7.367188 2.703125 -7.554688 C 2.738281 -7.578125 2.769531 -7.601562 2.800781 -7.617188 C 2.828125 -7.636719 2.863281 -7.644531 2.898438 -7.644531 C 2.921875 -7.644531 2.941406 -7.632812 2.960938 -7.609375 C 2.976562 -7.585938 2.988281 -7.554688 2.988281 -7.519531 C 2.988281 -7.4375 2.972656 -7.269531 2.941406 -7.011719 C 2.914062 -6.757812 2.898438 -6.546875 2.898438 -6.382812 C 2.898438 -6.335938 2.902344 -6.289062 2.90625 -6.25 C 2.914062 -6.207031 2.921875 -6.179688 2.933594 -6.167969 C 3.347656 -6.558594 3.789062 -6.855469 4.257812 -7.058594 C 4.726562 -7.257812 5.238281 -7.359375 5.796875 -7.359375 C 6.375 -7.359375 6.855469 -7.121094 7.234375 -6.648438 C 7.613281 -6.175781 7.804688 -5.589844 7.804688 -4.890625 L 7.804688 -1.101562 C 7.804688 -0.863281 7.886719 -0.707031 8.054688 -0.632812 C 8.21875 -0.554688 8.390625 -0.484375 8.570312 -0.425781 C 8.664062 -0.390625 8.753906 -0.351562 8.84375 -0.3125 C 8.933594 -0.269531 8.976562 -0.203125 8.976562 -0.105469 C 8.976562 -0.0351562 8.9375 0.0078125 8.851562 0.0273438 C 8.769531 0.0429688 8.691406 0.0546875 8.621094 0.0546875 C 8.382812 0.0546875 8.203125 0.0429688 8.070312 0.0273438 C 7.941406 0.0078125 7.816406 -0.0078125 7.699219 -0.0195312 C 7.578125 -0.03125 7.414062 -0.0351562 7.199219 -0.0351562 C 7 -0.0351562 6.832031 -0.03125 6.703125 -0.0195312 C 6.570312 -0.0078125 6.4375 0.0078125 6.300781 0.0273438 C 6.164062 0.0429688 5.980469 0.0546875 5.742188 0.0546875 C 5.683594 0.0546875 5.609375 0.0429688 5.519531 0.0273438 C 5.429688 0.0078125 5.386719 -0.0351562 5.386719 -0.105469 C 5.386719 -0.199219 5.429688 -0.269531 5.519531 -0.3125 C 5.609375 -0.351562 5.699219 -0.390625 5.796875 -0.425781 C 5.972656 -0.484375 6.144531 -0.554688 6.3125 -0.632812 C 6.476562 -0.707031 6.558594 -0.863281 6.558594 -1.101562 L 6.558594 -4.835938 C 6.558594 -5.355469 6.414062 -5.761719 6.125 -6.054688 C 5.835938 -6.34375 5.445312 -6.496094 4.960938 -6.507812 C 4.535156 -6.507812 4.160156 -6.4375 3.839844 -6.300781 C 3.519531 -6.164062 3.234375 -5.996094 2.988281 -5.796875 C 2.941406 -5.75 2.902344 -5.6875 2.878906 -5.609375 C 2.855469 -5.53125 2.84375 -5.457031 2.84375 -5.386719 L 2.84375 -1.101562 C 2.84375 -0.863281 2.925781 -0.707031 3.09375 -0.621094 C 3.257812 -0.539062 3.429688 -0.472656 3.609375 -0.425781 C 3.882812 -0.355469 4.019531 -0.261719 4.019531 -0.140625 C 4.019531 -0.0703125 3.988281 -0.0195312 3.929688 0.0078125 C 3.871094 0.0390625 3.78125 0.0546875 3.664062 0.0546875 C 3.425781 0.0546875 3.238281 0.0429688 3.101562 0.0273438 C 2.964844 0.0078125 2.839844 -0.0078125 2.71875 -0.0195312 C 2.601562 -0.03125 2.433594 -0.0351562 2.222656 -0.0351562 C 2.019531 -0.0351562 1.859375 -0.03125 1.734375 -0.0195312 C 1.609375 -0.0078125 1.476562 0.0078125 1.34375 0.0273438 C 1.207031 0.0429688 1.019531 0.0546875 0.78125 0.0546875 Z "/>
</g>
<g id="glyph-0-2">
<path d="M 6.347656 0.335938 C 6.324219 0.335938 6.285156 0.3125 6.230469 0.265625 C 6.175781 0.21875 6.152344 0.183594 6.152344 0.160156 C 6.152344 0.0429688 6.164062 -0.128906 6.195312 -0.347656 C 6.226562 -0.566406 6.238281 -0.753906 6.238281 -0.90625 L 6.238281 -1.011719 C 6.0625 -0.738281 5.777344 -0.460938 5.386719 -0.179688 C 4.996094 0.105469 4.503906 0.25 3.910156 0.25 C 3.234375 0.25 2.652344 0.0703125 2.160156 -0.285156 C 1.667969 -0.640625 1.289062 -1.097656 1.023438 -1.652344 C 0.757812 -2.210938 0.621094 -2.785156 0.621094 -3.378906 C 0.621094 -4.066406 0.78125 -4.710938 1.101562 -5.316406 C 1.421875 -5.921875 1.882812 -6.410156 2.480469 -6.789062 C 3.078125 -7.167969 3.792969 -7.359375 4.621094 -7.359375 C 4.859375 -7.359375 5.097656 -7.339844 5.34375 -7.296875 C 5.585938 -7.257812 5.773438 -7.210938 5.902344 -7.164062 C 6.007812 -7.128906 6.085938 -7.109375 6.132812 -7.109375 C 6.214844 -7.109375 6.257812 -7.253906 6.257812 -7.539062 L 6.257812 -10.0625 C 6.257812 -10.546875 6.179688 -10.875 6.027344 -11.039062 C 5.871094 -11.207031 5.652344 -11.3125 5.367188 -11.359375 C 5.261719 -11.382812 5.207031 -11.460938 5.207031 -11.589844 C 5.207031 -11.695312 5.257812 -11.769531 5.351562 -11.804688 C 5.871094 -11.933594 6.28125 -12.058594 6.578125 -12.175781 C 6.875 -12.296875 7.105469 -12.390625 7.269531 -12.460938 C 7.316406 -12.484375 7.363281 -12.5 7.402344 -12.507812 C 7.445312 -12.511719 7.476562 -12.515625 7.503906 -12.515625 C 7.574219 -12.515625 7.613281 -12.480469 7.625 -12.410156 C 7.625 -12.339844 7.617188 -12.214844 7.601562 -12.042969 C 7.582031 -11.871094 7.5625 -11.621094 7.539062 -11.289062 C 7.515625 -10.957031 7.503906 -10.523438 7.503906 -9.992188 L 7.503906 -1.957031 C 7.503906 -1.554688 7.53125 -1.257812 7.589844 -1.074219 C 7.648438 -0.890625 7.746094 -0.800781 7.875 -0.800781 C 7.933594 -0.800781 8.039062 -0.804688 8.1875 -0.816406 C 8.335938 -0.828125 8.484375 -0.839844 8.640625 -0.851562 C 8.851562 -0.863281 8.960938 -0.8125 8.960938 -0.691406 C 8.960938 -0.609375 8.933594 -0.535156 8.878906 -0.472656 C 8.824219 -0.40625 8.769531 -0.375 8.710938 -0.375 C 8.378906 -0.328125 8.054688 -0.257812 7.734375 -0.167969 C 7.414062 -0.078125 7.046875 0.0546875 6.632812 0.230469 C 6.535156 0.277344 6.472656 0.308594 6.445312 0.320312 C 6.414062 0.332031 6.382812 0.335938 6.347656 0.335938 Z M 4.550781 -0.675781 C 4.859375 -0.675781 5.160156 -0.753906 5.457031 -0.914062 C 5.753906 -1.074219 6.015625 -1.285156 6.238281 -1.546875 L 6.257812 -4.746094 C 6.257812 -5.066406 6.164062 -5.378906 5.980469 -5.6875 C 5.796875 -5.996094 5.542969 -6.25 5.21875 -6.445312 C 4.890625 -6.640625 4.507812 -6.738281 4.070312 -6.738281 C 3.796875 -6.738281 3.492188 -6.65625 3.148438 -6.488281 C 2.804688 -6.324219 2.507812 -6.03125 2.257812 -5.609375 C 2.007812 -5.1875 1.882812 -4.582031 1.882812 -3.785156 C 1.882812 -3.109375 1.984375 -2.570312 2.1875 -2.160156 C 2.386719 -1.75 2.632812 -1.441406 2.925781 -1.226562 C 3.214844 -1.011719 3.511719 -0.867188 3.8125 -0.792969 C 4.113281 -0.714844 4.363281 -0.675781 4.550781 -0.675781 Z "/>
</g>
<g id="glyph-0-3">
<path d="M 4.160156 0.25 C 3.496094 0.25 2.898438 0.09375 2.363281 -0.214844 C 1.832031 -0.523438 1.40625 -0.945312 1.09375 -1.484375 C 0.78125 -2.023438 0.621094 -2.636719 0.621094 -3.324219 C 0.621094 -3.820312 0.71875 -4.308594 0.914062 -4.78125 C 1.109375 -5.257812 1.386719 -5.6875 1.742188 -6.078125 C 2.097656 -6.46875 2.511719 -6.78125 2.988281 -7.011719 C 3.460938 -7.242188 3.96875 -7.359375 4.515625 -7.359375 C 5.203125 -7.359375 5.820312 -7.195312 6.375 -6.863281 C 6.925781 -6.53125 7.363281 -6.09375 7.6875 -5.554688 C 8.015625 -5.015625 8.175781 -4.425781 8.175781 -3.785156 C 8.175781 -3.097656 8.027344 -2.449219 7.722656 -1.832031 C 7.421875 -1.214844 6.976562 -0.714844 6.382812 -0.328125 C 5.789062 0.0546875 5.046875 0.25 4.160156 0.25 Z M 4.535156 -0.285156 C 4.9375 -0.285156 5.296875 -0.363281 5.617188 -0.515625 C 5.9375 -0.667969 6.1875 -0.917969 6.363281 -1.261719 C 6.507812 -1.535156 6.601562 -1.867188 6.648438 -2.257812 C 6.695312 -2.648438 6.71875 -3.015625 6.71875 -3.359375 C 6.71875 -3.929688 6.617188 -4.476562 6.410156 -5.003906 C 6.203125 -5.53125 5.910156 -5.964844 5.539062 -6.300781 C 5.164062 -6.640625 4.722656 -6.808594 4.214844 -6.808594 C 3.894531 -6.808594 3.605469 -6.757812 3.351562 -6.65625 C 3.097656 -6.554688 2.863281 -6.371094 2.648438 -6.097656 C 2.410156 -5.800781 2.257812 -5.441406 2.1875 -5.011719 C 2.117188 -4.585938 2.078125 -4.160156 2.078125 -3.734375 C 2.078125 -3.152344 2.1875 -2.597656 2.398438 -2.070312 C 2.613281 -1.542969 2.902344 -1.113281 3.269531 -0.78125 C 3.636719 -0.449219 4.058594 -0.285156 4.535156 -0.285156 Z "/>
</g>
</g>
</defs>
<g fill="rgb(23.921569%, 22.352941%, 16.078431%)" fill-opacity="1">
<use xlink:href="#glyph-0-0" x="30" y="37.901367"/>
<use xlink:href="#glyph-0-1" x="43" y="37.901367"/>
<use xlink:href="#glyph-0-2" x="52" y="37.901367"/>
<use xlink:href="#glyph-0-3" x="61" y="37.901367"/>
</g>
</svg>
